<?xml version="1.0" standalone="no"?>
<!DOCTYPE svg PUBLIC "-//W3C//DTD SVG 1.1//EN" "http://www.w3.org/Graphics/SVG/1.1/DTD/svg11.dtd" >
<svg xmlns="http://www.w3.org/2000/svg" xmlns:xlink="http://www.w3.org/1999/xlink" version="1.1">
<metadata></metadata>
<defs>
<font id="avenirmedium" horiz-adv-x="1138" >
<font-face units-per-em="2048" ascent="1638" descent="-410" />
<missing-glyph horiz-adv-x="569" />
<glyph horiz-adv-x="0" />
<glyph horiz-adv-x="0" />
<glyph unicode="&#xd;" horiz-adv-x="569" />
<glyph unicode=" "  horiz-adv-x="569" />
<glyph unicode="&#x09;" horiz-adv-x="569" />
<glyph unicode="&#xa0;" horiz-adv-x="569" />
<glyph unicode="!" horiz-adv-x="569" d="M150 123q0 56 40 95.5t95 39.5t95 -40t40 -95t-40 -95t-95 -40t-95 40t-40 95zM182 418v1032h197v-1032h-197z" />
<glyph unicode="&#x22;" horiz-adv-x="1062" d="M299 946v504h160v-504h-160zM604 946v504h160v-504h-160z" />
<glyph unicode="#" d="M51 418v160h217l41 294h-194v160h217l57 418h162l-57 -418h237l57 418h162l-57 -418h194v-160h-217l-41 -294h195v-160h-217l-57 -418h-162l57 418h-237l-58 -418h-162l58 418h-195zM430 578h238l41 294h-238z" />
<glyph unicode="$" d="M53 172l158 141q44 -74 122 -117.5t171 -48.5v504q-216 55 -317 157.5t-101 262.5q0 161 116.5 273t301.5 131v147h110v-147q122 0 228 -41.5t178 -116.5l-148 -143q-45 59 -113 93.5t-145 35.5v-488q59 -16 101 -29.5t91.5 -34t83.5 -42.5t67.5 -53t54 -67.5t33 -85.5 t12.5 -106q0 -172 -123 -289.5t-320 -132.5v-147h-110v147q-301 0 -451 197zM283 1071q0 -160 221 -223v455q-106 -18 -163.5 -80.5t-57.5 -151.5zM614 147q115 15 180.5 81.5t65.5 160.5q0 83 -56.5 138t-189.5 96v-476z" />
<glyph unicode="%" horiz-adv-x="1744" d="M76 1124q0 150 106 256.5t254 106.5q151 0 258 -105.5t107 -257.5q0 -148 -106.5 -255t-256.5 -107q-147 0 -254.5 104.5t-107.5 257.5zM236 1124q0 -84 59 -143t143 -59q85 0 144 58.5t59 143.5q0 84 -59.5 143.5t-145.5 59.5q-82 0 -141 -59.5t-59 -143.5zM358 0 l912 1516l123 -64l-912 -1515zM944 326q0 148 106.5 255t256.5 107q149 0 255.5 -105.5t106.5 -256.5q0 -150 -106 -256.5t-256 -106.5t-256.5 106.5t-106.5 256.5zM1104 326q0 -84 59.5 -143.5t143.5 -59.5q83 0 142.5 59.5t59.5 143.5t-59 143t-143 59q-81 0 -142 -58.5 t-61 -143.5z" />
<glyph unicode="&#x26;" horiz-adv-x="1478" d="M96 383q0 255 330 416q-93 97 -131.5 174.5t-38.5 161.5q0 152 109 246t278 94q166 0 270.5 -88t104.5 -240q0 -217 -301 -373l287 -299l182 297h223l-281 -434l330 -338h-264l-178 193q-98 -120 -203 -175t-242 -55q-117 0 -209.5 35t-149.5 94.5t-86.5 134t-29.5 156.5 zM305 389q0 -104 82.5 -179t190.5 -75q167 0 321 184l-350 365q-110 -66 -151 -102q-93 -83 -93 -193zM453 1133q0 -105 143 -242q127 67 176 127t49 129q0 70 -49 113t-129 43q-81 0 -135.5 -47t-54.5 -123z" />
<glyph unicode="'" horiz-adv-x="569" d="M205 946v504h160v-504h-160z" />
<glyph unicode="(" horiz-adv-x="569" d="M98 590q0 235 78.5 473t220.5 436l123 -78q-145 -226 -203.5 -414t-58.5 -415q0 -473 262 -830l-123 -81q-144 198 -221.5 429.5t-77.5 479.5z" />
<glyph unicode=")" horiz-adv-x="569" d="M49 -242q143 226 202.5 413t59.5 419q0 466 -262 827l123 82q144 -197 221.5 -429.5t77.5 -477.5q0 -238 -77 -474t-222 -437z" />
<glyph unicode="*" horiz-adv-x="950" d="M72 1114l43 133l288 -98v301h148v-301l285 96l43 -137l-285 -92l180 -244l-112 -84l-187 250l-182 -246l-113 84l182 240z" />
<glyph unicode="+" horiz-adv-x="1363" d="M135 541v159h467v467h160v-467h467v-159h-467v-467h-160v467h-467z" />
<glyph unicode="," horiz-adv-x="569" d="M98 -270l142 503h198l-172 -503h-168z" />
<glyph unicode="-" horiz-adv-x="647" d="M72 410v172h503v-172h-503z" />
<glyph unicode="." horiz-adv-x="569" d="M150 123q0 56 40 95.5t95 39.5q56 0 95.5 -40t39.5 -95q0 -57 -40.5 -96t-94.5 -39q-55 0 -95 39.5t-40 95.5z" />
<glyph unicode="/" horiz-adv-x="796" d="M0 -37l655 1577l142 -53l-654 -1577z" />
<glyph unicode="0" d="M70 725q0 352 128 551t371 199q242 0 371 -198.5t129 -551.5q0 -351 -129.5 -550.5t-370.5 -199.5q-162 0 -276 95.5t-168.5 262t-54.5 392.5zM266 725q0 -280 78 -429t225 -149t225 148.5t78 429.5q0 283 -77.5 430.5t-227.5 147.5q-145 0 -223 -145.5t-78 -432.5z" />
<glyph unicode="1" d="M172 1116l403 334h175v-1450h-197v1225l-266 -246z" />
<glyph unicode="2" d="M94 0v209l565 561q86 84 131.5 157t45.5 156q0 101 -71 166.5t-179 65.5q-107 0 -176 -59t-88 -164l-213 18q28 180 154.5 278.5t324.5 98.5q205 0 330.5 -109.5t125.5 -292.5q0 -112 -54 -213.5t-193 -234.5l-482 -465h729v-172h-950z" />
<glyph unicode="3" d="M94 291l207 63q39 -115 100 -161t164 -46q121 0 202 75t81 188q0 137 -96 203.5t-312 66.5v172q193 0 282 49.5t89 177.5q0 111 -66.5 173.5t-177.5 62.5q-78 0 -142.5 -46t-98.5 -122l-201 67q54 129 168.5 201t269.5 72q91 0 170 -24t141 -71.5t98 -124t36 -173.5 q0 -114 -69 -205t-179 -125v-4q132 -24 208 -124.5t76 -240.5q0 -101 -39 -182.5t-106.5 -132.5t-154 -78t-183.5 -27q-180 0 -300 81t-167 235z" />
<glyph unicode="4" d="M70 319v201l577 930h238v-958h205v-173h-205v-319h-197v319h-618zM242 492h446v725h-4z" />
<glyph unicode="5" d="M70 268l198 68q72 -189 269 -189q121 0 201.5 81.5t80.5 215.5q0 150 -94 234t-256 84q-58 0 -143 -21t-156 -55l16 764h779v-184h-588l-6 -363q25 12 88 21.5t106 9.5q94 0 175.5 -32t143 -91t97 -151t35.5 -205q0 -211 -146 -345.5t-364 -134.5q-151 0 -269 77.5 t-167 215.5z" />
<glyph unicode="6" d="M72 442q0 120 32 209t111 217l369 582h231l-364 -561h8q67 33 159 33q62 0 123.5 -16t120.5 -52t104.5 -88t73 -130.5t27.5 -172.5q0 -222 -137.5 -355t-360.5 -133q-139 0 -252.5 59t-179 166t-65.5 242zM268 449q0 -134 84 -218t217 -84t217 84t84 218 q0 124 -78.5 212.5t-224.5 88.5q-130 0 -214.5 -82.5t-84.5 -218.5z" />
<glyph unicode="7" d="M86 1278v172h911v-168l-577 -1282h-221l587 1278h-700z" />
<glyph unicode="8" d="M96 416q0 127 73.5 222.5t203.5 131.5v6q-106 31 -167 121t-61 215q0 158 122.5 260.5t301.5 102.5t301.5 -101t122.5 -262q0 -124 -60.5 -214t-166.5 -122v-6q128 -37 202 -131.5t74 -222.5q0 -197 -132.5 -319t-340.5 -122t-340.5 122t-132.5 319zM293 416 q0 -120 78.5 -194.5t197.5 -74.5q120 0 198.5 74.5t78.5 194.5q0 125 -78 196.5t-201 71.5q-112 0 -193 -74.5t-81 -193.5zM342 1085q0 -96 65 -162.5t162 -66.5q103 0 165.5 64.5t62.5 164.5q0 102 -64 166t-166 64q-94 0 -159.5 -65t-65.5 -165z" />
<glyph unicode="9" d="M72 987q0 224 138 356t359 132q215 0 356.5 -132.5t141.5 -334.5q0 -119 -34 -212t-109 -212l-369 -584h-231l364 561h-8q-67 -33 -160 -33q-81 0 -158 27.5t-143 81.5t-106.5 145t-40.5 205zM268 1001q0 -136 84.5 -218.5t216.5 -82.5q135 0 218 83.5t83 217.5 q0 58 -18.5 111t-54 96t-95.5 69t-135 26q-130 0 -214.5 -82.5t-84.5 -219.5z" />
<glyph unicode=":" horiz-adv-x="569" d="M150 123q0 56 40 95.5t95 39.5t95 -40t40 -95q0 -56 -40 -95.5t-95 -39.5q-56 0 -95.5 39t-39.5 96zM150 848q0 56 40 95.5t95 39.5t95 -39.5t40 -95.5t-40 -95.5t-95 -39.5q-56 0 -95.5 39t-39.5 96z" />
<glyph unicode=";" horiz-adv-x="569" d="M98 -270l142 503h198l-172 -503h-168zM150 846q0 56 40 95.5t95 39.5t95 -39.5t40 -95.5t-40 -95.5t-95 -39.5q-56 0 -95.5 39t-39.5 96z" />
<glyph unicode="&#x3c;" horiz-adv-x="1363" d="M135 537v168l1094 450v-162l-926 -372l926 -373v-160z" />
<glyph unicode="=" horiz-adv-x="1363" d="M135 379v160h1094v-160h-1094zM135 700v160h1094v-160h-1094z" />
<glyph unicode="&#x3e;" horiz-adv-x="1363" d="M135 86v162l926 373l-926 372v160l1094 -448v-168z" />
<glyph unicode="?" horiz-adv-x="1024" d="M98 1106q26 177 148 279t303 102q182 0 295.5 -104t113.5 -275q0 -161 -81 -242l-140 -141q-79 -79 -96 -119q-14 -44 -14 -127v-73h-197v133q0 87 27 139q17 39 75 94l82 78q89 86 118.5 137t29.5 111q0 93 -63 155t-154 62q-94 0 -159.5 -62.5t-78.5 -167.5zM391 123 q0 55 40.5 95t94.5 40t95 -40t41 -95t-40 -95t-96 -40t-95.5 40t-39.5 95z" />
<glyph unicode="@" horiz-adv-x="1638" d="M90 729q0 153 59.5 293.5t161 242t242.5 162t297 60.5q186 0 345 -77.5t256 -222t97 -323.5q0 -114 -41 -222t-116 -187q-77 -82 -163.5 -125t-160.5 -43q-56 0 -92 35t-37 96h-8q-122 -131 -254 -131q-123 0 -202 89.5t-79 231.5q0 95 32 191t88.5 175t145.5 129t193 50 q78 0 135.5 -40t83.5 -116h4l33 117h150l-173 -565q-10 -36 -10 -53q0 -50 60 -50q41 0 86.5 31t83.5 90q82 125 82 281q0 224 -151 364t-386 140q-126 0 -238 -48t-191.5 -131.5t-126 -200.5t-46.5 -251q0 -171 75.5 -312.5t216.5 -226t320 -84.5q150 0 277 54.5t200 152.5 h162q-92 -159 -269.5 -250.5t-373.5 -91.5q-154 0 -295 58t-245 158t-166 243.5t-62 306.5zM567 610q0 -164 146 -164q77 0 143 58.5t101.5 142.5t35.5 166q0 80 -35.5 130t-97.5 50q-128 0 -210.5 -109.5t-82.5 -273.5z" />
<glyph unicode="A" horiz-adv-x="1441" d="M2 0l639 1450h178l621 -1450h-230l-145 358h-690l-144 -358h-229zM444 530h549l-270 666h-4z" />
<glyph unicode="B" horiz-adv-x="1290" d="M186 0v1450h512q87 0 163 -21.5t137 -64t96.5 -114t35.5 -163.5q0 -115 -63.5 -196.5t-185.5 -122.5v-4h2q81 -9 143.5 -47t97.5 -92t52.5 -110.5t17.5 -111.5q0 -184 -141 -293.5t-361 -109.5h-506zM383 172h297q134 0 219.5 63t85.5 183q0 123 -81 190.5t-228 67.5 h-293v-504zM383 848h274q124 0 194.5 57t70.5 160q0 97 -61.5 155t-162.5 58h-315v-430z" />
<glyph unicode="C" horiz-adv-x="1441" d="M96 715q0 163 54.5 305t151.5 245.5t239.5 162.5t310.5 59q155 0 289.5 -58.5t218.5 -166.5l-164 -125q-64 81 -155.5 123.5t-194.5 42.5q-158 0 -282.5 -78.5t-191.5 -213t-67 -298.5q0 -156 65.5 -284t190 -205t285.5 -77q239 0 379 195l166 -125q-86 -116 -231.5 -185 t-317.5 -69q-136 0 -256.5 43.5t-208.5 118t-152.5 171t-96.5 204t-32 215.5z" />
<glyph unicode="D" horiz-adv-x="1517" d="M154 0v1450h516q152 0 278 -41.5t212.5 -111t146 -163.5t87 -197t27.5 -212q0 -206 -99.5 -371.5t-278.5 -259.5t-404 -94h-485zM350 184h258q85 0 168 18t162.5 60t140 103t97 154t36.5 206q0 106 -34 201.5t-100 172t-175 122t-248 45.5h-305v-1082z" />
<glyph unicode="E" horiz-adv-x="1251" d="M186 0v1450h936v-184h-739v-432h688v-185h-688v-465h776v-184h-973z" />
<glyph unicode="F" horiz-adv-x="1175" d="M186 0v1450h912v-184h-715v-455h666v-184h-666v-627h-197z" />
<glyph unicode="G" horiz-adv-x="1593" d="M96 725q0 212 96 386t270 275t392 101q359 0 539 -189l-140 -149q-159 154 -401 154q-238 0 -392.5 -164t-154.5 -414q0 -158 70.5 -289.5t200.5 -210t292 -78.5q223 0 357 76v404h-322v184h518v-715q-100 -61 -252.5 -97t-296.5 -36q-172 0 -317.5 58t-246 159.5 t-156.5 242t-56 302.5z" />
<glyph unicode="H" horiz-adv-x="1517" d="M186 0v1450h197v-602h752v602h196v-1450h-196v664h-752v-664h-197z" />
<glyph unicode="I" horiz-adv-x="569" d="M186 0v1450h197v-1450h-197z" />
<glyph unicode="J" horiz-adv-x="987" d="M18 281l193 43q18 -83 69.5 -130t131.5 -47q115 0 171 78.5t56 241.5v983h197v-1044q0 -110 -35.5 -197t-95.5 -139.5t-134.5 -79.5t-158.5 -27q-160 0 -262.5 83t-131.5 235z" />
<glyph unicode="K" horiz-adv-x="1327" d="M186 0v1450h197v-627h16l641 627h275l-701 -670l748 -780h-287l-676 725h-16v-725h-197z" />
<glyph unicode="L" horiz-adv-x="1062" d="M186 0v1450h197v-1266h666v-184h-863z" />
<glyph unicode="M" horiz-adv-x="1855" d="M172 0v1450h293l461 -1098h8l457 1098h292v-1450h-196v1192h-4l-490 -1192h-131l-489 1192h-4v-1192h-197z" />
<glyph unicode="N" horiz-adv-x="1630" d="M186 0v1450h258l799 -1192h4v1192h197v-1450h-250l-807 1192h-4v-1192h-197z" />
<glyph unicode="O" horiz-adv-x="1703" d="M96 725q0 215 98 389.5t271 273.5t387 99q209 0 381 -95t273.5 -270.5t101.5 -396.5q0 -212 -95.5 -385.5t-269 -275t-391.5 -101.5q-157 0 -296.5 57t-240.5 157t-160 242.5t-59 305.5zM305 725q0 -158 66 -289t192.5 -210t288.5 -79q156 0 281.5 75.5t195.5 207.5 t70 295q0 119 -39.5 224.5t-109.5 184t-174 124t-226 45.5q-155 0 -280 -75.5t-195 -207.5t-70 -295z" />
<glyph unicode="P" horiz-adv-x="1214" d="M186 0v1450h521q211 0 332.5 -106.5t121.5 -299.5t-122.5 -299t-331.5 -106h-324v-639h-197zM383 811h266q153 0 228 57t75 176q0 234 -303 234h-266v-467z" />
<glyph unicode="Q" horiz-adv-x="1703" d="M96 741q0 206 97 376.5t269.5 270t383.5 99.5q148 0 283.5 -54.5t236 -149t160 -230.5t59.5 -291q0 -205 -92 -361.5t-240 -224.5v-4h430v-172h-843q-202 0 -372.5 96t-271 266.5t-100.5 378.5zM305 758q0 -155 64.5 -285t188.5 -209.5t282 -79.5q232 0 384 162.5 t152 407.5q0 153 -68.5 278.5t-192 198t-277.5 72.5q-108 0 -206 -42t-170 -114t-114.5 -173.5t-42.5 -215.5z" />
<glyph unicode="R" horiz-adv-x="1251" d="M186 0v1450h521q77 0 144 -15t124.5 -47t98.5 -79t64 -114.5t23 -150.5q0 -62 -22 -123.5t-63.5 -115.5t-111.5 -93t-157 -50h-2l412 -662h-246l-369 639h-219v-639h-197zM383 811h266q153 0 228 57t75 176q0 234 -303 234h-266v-467z" />
<glyph unicode="S" d="M68 164l161 139q47 -73 129.5 -114.5t178.5 -41.5q115 0 201.5 67t86.5 175q0 77 -53 128t-182 91l-129 43q-81 25 -140 57.5t-109 82t-75.5 122t-25.5 166.5q0 74 31.5 145.5t90.5 130.5t155 95.5t214 36.5q284 0 418 -166l-160 -145q-38 58 -106 92.5t-154 34.5 q-64 0 -114.5 -15.5t-81 -39t-50.5 -54.5t-27.5 -59t-7.5 -56q0 -88 56 -142t162 -87l182 -59q158 -51 236.5 -140.5t78.5 -238.5q0 -200 -141.5 -324.5t-362.5 -124.5q-152 0 -271.5 52.5t-190.5 148.5z" />
<glyph unicode="T" horiz-adv-x="1175" d="M23 1266v184h1130v-184h-467v-1266h-197v1266h-466z" />
<glyph unicode="U" horiz-adv-x="1441" d="M160 522v928h196v-895q0 -52 10.5 -104.5t37 -108t66.5 -98t105 -70t146 -27.5q78 0 141.5 25.5t104 67t68 96t39 109.5t11.5 110v895h197v-928q0 -106 -38.5 -206t-108 -179t-177.5 -126.5t-237 -47.5q-125 0 -231.5 45.5t-178 122t-111.5 178t-40 213.5z" />
<glyph unicode="V" horiz-adv-x="1290" d="M-12 1450h227l426 -1180h4l442 1180h216l-572 -1450h-184z" />
<glyph unicode="W" horiz-adv-x="1970" d="M2 1450h205l319 -1159h4l342 1159h226l342 -1159h4l319 1159h205l-422 -1450h-207l-352 1184h-4l-350 -1184h-207z" />
<glyph unicode="X" horiz-adv-x="1327" d="M-4 0l526 762l-487 688h252l377 -557l372 557h246l-483 -686l532 -764h-258l-416 629l-417 -629h-244z" />
<glyph unicode="Y" horiz-adv-x="1253" d="M-20 1450h251l396 -637l407 637h240l-549 -832v-618h-197v618z" />
<glyph unicode="Z" horiz-adv-x="1214" d="M66 0v182l825 1084h-801v184h1047v-184l-822 -1082h834v-184h-1083z" />
<glyph unicode="[" horiz-adv-x="569" d="M147 -319v1818h357v-135h-185v-1548h185v-135h-357z" />
<glyph unicode="\" horiz-adv-x="796" d="M0 1487l141 53l656 -1577l-144 -53z" />
<glyph unicode="]" horiz-adv-x="569" d="M66 -184h184v1548h-184v135h356v-1818h-356v135z" />
<glyph unicode="^" horiz-adv-x="1363" d="M164 565l436 885h164l436 -885h-170l-348 723l-348 -723h-170z" />
<glyph unicode="_" horiz-adv-x="1024" d="M0 -154h1024v-102h-1024v102z" />
<glyph unicode="`" horiz-adv-x="491" d="M-94 1450h262l213 -295h-170z" />
<glyph unicode="a" horiz-adv-x="1062" d="M92 266q0 155 130 245.5t403 90.5h137v35q0 97 -65 154t-169 57q-78 0 -136.5 -23.5t-137.5 -87.5l-111 115q75 69 177 106t208 37q105 0 186 -27.5t127.5 -74t69.5 -101t23 -114.5v-520q0 -90 8 -158h-164q-6 74 -6 147h-4q-61 -91 -144 -131.5t-196 -40.5 q-149 0 -242.5 79t-93.5 212zM276 281q0 -76 52.5 -117t156.5 -41q127 0 202 76t75 215v53h-105q-108 0 -185 -15.5t-118.5 -43t-59.5 -58.5t-18 -69z" />
<glyph unicode="b" horiz-adv-x="1251" d="M139 0v1548h185v-717h4q49 75 142 119.5t196 44.5q217 0 355 -142.5t138 -367.5q0 -219 -135.5 -364.5t-355.5 -145.5q-102 0 -194.5 43.5t-145.5 120.5h-4v-139h-185zM324 485q0 -151 87.5 -244.5t231.5 -93.5t232 94t88 244q0 153 -89.5 245.5t-232.5 92.5 q-141 0 -229 -92.5t-88 -245.5z" />
<glyph unicode="c" horiz-adv-x="987" d="M92 481q0 227 142.5 369.5t365.5 142.5q109 0 206 -38.5t167 -114.5l-139 -127q-102 108 -242 108q-137 0 -220 -96t-83 -248q0 -142 88 -236t225 -94q76 0 131.5 26.5t104.5 82.5l131 -131q-132 -150 -369 -150q-224 0 -366 141t-142 365z" />
<glyph unicode="d" horiz-adv-x="1251" d="M92 485q0 225 139 367.5t355 142.5q102 0 194 -43.5t144 -120.5h4v717h184v-1548h-184v139h-4q-53 -77 -144 -120.5t-194 -43.5q-216 0 -355 142.5t-139 367.5zM289 485q0 -152 88 -245t231 -93q144 0 232 93.5t88 244.5q0 153 -89.5 245.5t-232.5 92.5q-141 0 -229 -93 t-88 -245z" />
<glyph unicode="e" d="M82 485q0 217 141.5 363.5t360.5 146.5q218 0 345.5 -138.5t127.5 -387.5v-51h-778q0 -122 97.5 -202.5t229.5 -80.5q147 0 266 146l140 -107q-156 -199 -430 -199q-219 0 -359.5 140.5t-140.5 369.5zM279 565h581q-4 136 -77.5 209.5t-202.5 73.5q-70 0 -129 -27.5 t-95.5 -70.5t-56.5 -91.5t-20 -93.5z" />
<glyph unicode="f" horiz-adv-x="681" d="M2 811v160h209v225q0 194 79.5 285.5t252.5 91.5q77 0 137 -14l-21 -164q-42 18 -104 18q-85 0 -121.5 -47t-36.5 -162v-233h219v-160h-221v-811h-184v811h-209z" />
<glyph unicode="g" horiz-adv-x="1251" d="M92 481q0 231 139 372.5t355 141.5q103 0 193.5 -44t144.5 -120h4v140h184v-971q0 -98 -35.5 -186.5t-101.5 -157t-167.5 -108.5t-225.5 -40q-290 0 -476 175l125 155q148 -157 349 -157q169 0 258.5 87.5t89.5 243.5v148h-6q-48 -83 -138.5 -127.5t-197.5 -44.5 q-136 0 -248.5 61.5t-179 175t-66.5 256.5zM289 485q0 -147 85.5 -236t233.5 -89q146 0 233 88t87 237q0 153 -89.5 245.5t-232.5 92.5q-141 0 -229 -94t-88 -244z" />
<glyph unicode="h" d="M139 0v1548h185v-727h4q38 81 125 127.5t194 46.5q161 0 256.5 -98t95.5 -264v-633h-184v580q0 113 -58.5 178t-162.5 65q-127 0 -198.5 -84t-71.5 -231v-508h-185z" />
<glyph unicode="i" horiz-adv-x="491" d="M111 1319q0 56 40 95.5t95 39.5q56 0 95.5 -40t39.5 -95q0 -56 -40 -95.5t-95 -39.5q-57 0 -96 39t-39 96zM154 0v971h184v-971h-184z" />
<glyph unicode="j" horiz-adv-x="491" d="M-78 -473l21 170q53 -16 75 -16q73 0 104.5 46t31.5 134v1110h184v-1121q0 -177 -74.5 -259.5t-222.5 -82.5q-66 0 -119 19zM111 1319q0 56 40 95.5t95 39.5q56 0 95.5 -40t39.5 -95q0 -56 -40 -95.5t-95 -39.5q-57 0 -96 39t-39 96z" />
<glyph unicode="k" horiz-adv-x="1062" d="M139 0v1548h185v-999l419 422h256l-454 -443l491 -528h-262l-450 504v-504h-185z" />
<glyph unicode="l" horiz-adv-x="491" d="M154 0v1548h184v-1548h-184z" />
<glyph unicode="m" horiz-adv-x="1744" d="M139 0v971h172v-152h4q31 71 120 123.5t192 52.5q209 0 303 -180q45 84 128 132t179 48q184 0 276.5 -107t92.5 -315v-573h-185v551q0 141 -51 206.5t-158 65.5q-122 0 -184.5 -74.5t-62.5 -209.5v-539h-185v522q0 167 -49 234t-156 67q-113 0 -182 -86t-69 -225v-512 h-185z" />
<glyph unicode="n" d="M139 0v971h185v-150h4q38 81 125 127.5t194 46.5q162 0 257 -98.5t95 -263.5v-633h-184v580q0 113 -58.5 178t-162.5 65q-127 0 -198.5 -84t-71.5 -231v-508h-185z" />
<glyph unicode="o" horiz-adv-x="1216" d="M92 485q0 139 68 256.5t187 185.5t261 68q137 0 254.5 -64.5t189.5 -182.5t72 -263q0 -139 -68 -256.5t-187 -185.5t-261 -68q-139 0 -257.5 66.5t-188.5 184.5t-70 259zM289 485q0 -152 88 -245t231 -93q144 0 232 93.5t88 244.5q0 153 -89.5 245.5t-232.5 92.5 q-141 0 -229 -94t-88 -244z" />
<glyph unicode="p" horiz-adv-x="1251" d="M139 -578v1549h185v-140h4q55 78 145 121t195 43q214 0 352.5 -141.5t138.5 -368.5q0 -225 -137.5 -367.5t-355.5 -142.5q-105 0 -198 45t-140 119h-4v-717h-185zM324 485q0 -151 87.5 -244.5t231.5 -93.5q145 0 232.5 92t87.5 246q0 153 -89.5 245.5t-232.5 92.5 q-141 0 -229 -92.5t-88 -245.5z" />
<glyph unicode="q" horiz-adv-x="1251" d="M92 485q0 144 61 260t174 183t259 67q103 0 194.5 -44t143.5 -120h4v140h184v-1438h-184v606h-4q-51 -75 -142.5 -119.5t-195.5 -44.5q-218 0 -356 142.5t-138 367.5zM289 485q0 -152 88 -245t231 -93q145 0 232.5 93.5t87.5 244.5q0 68 -20.5 128t-59.5 107.5t-101.5 75 t-140.5 27.5q-141 0 -229 -93t-88 -245z" />
<glyph unicode="r" horiz-adv-x="757" d="M139 0v971h185v-150h4q37 78 118 126t172 48q52 0 82 -12l-8 -199q-58 15 -92 15q-136 0 -206 -77.5t-70 -225.5v-496h-185z" />
<glyph unicode="s" horiz-adv-x="909" d="M57 147l140 115q112 -115 235 -115q81 0 139 33t58 90q0 53 -46 86t-139 54q-90 19 -150.5 40t-107 54t-67.5 80t-21 112q0 73 31.5 131t84 94t117.5 55t136 19q111 0 199 -41.5t133 -117.5l-144 -109q-82 96 -198 96q-69 0 -115.5 -30.5t-46.5 -77.5q0 -56 49 -88.5 t141 -51.5q180 -35 260 -100.5t80 -193.5q0 -102 -57.5 -173t-144.5 -102t-193 -31q-132 0 -220.5 41.5t-152.5 130.5z" />
<glyph unicode="t" horiz-adv-x="757" d="M-2 811v160h213v272h184v-272h264v-160h-264v-467q0 -102 29.5 -149.5t110.5 -47.5q84 0 131 29v-168q-25 -14 -75.5 -23.5t-92.5 -9.5q-59 0 -105.5 11.5t-76 27.5t-51 45t-31.5 52.5t-15.5 61.5t-6.5 60t-1 60v518h-213z" />
<glyph unicode="u" d="M139 338v633h185v-582q0 -114 59 -178t162 -64q128 0 199 85t71 231v508h184v-971h-184v150h-4q-38 -81 -124.5 -128t-194.5 -47q-161 0 -257 99t-96 264z" />
<glyph unicode="v" horiz-adv-x="1024" d="M23 971h213l290 -744l279 744h196l-380 -971h-203z" />
<glyph unicode="w" horiz-adv-x="1554" d="M23 971h206l220 -725h4l231 725h195l245 -725h4l209 725h195l-313 -971h-187l-256 725h-4l-231 -725h-199z" />
<glyph unicode="x" horiz-adv-x="1062" d="M12 0l394 518l-345 453h238l236 -344l231 344h223l-332 -453l394 -518h-238l-287 408l-286 -408h-228z" />
<glyph unicode="y" horiz-adv-x="1024" d="M23 971h213l288 -758h4l275 758h198l-458 -1176q-23 -59 -42 -98t-47 -78t-60.5 -61.5t-79 -36t-105.5 -13.5q-95 0 -164 27l23 166q62 -20 110 -20q80 0 119 37.5t72 123.5l57 152z" />
<glyph unicode="z" horiz-adv-x="948" d="M72 0v166l551 645h-533v160h758v-164l-555 -647h584v-160h-805z" />
<glyph unicode="{" horiz-adv-x="681" d="M82 508v160q79 0 125.5 74t46.5 169v316q0 69 21.5 124t54.5 86t68 46.5t67 15.5h158v-147h-95q-48 0 -75 -47t-27 -123v-334q0 -89 -45.5 -159.5t-126.5 -96.5v-6q75 -14 123.5 -84.5t48.5 -175.5v-308q0 -190 102 -190h95v-147h-152q-95 0 -156 85t-61 220v270 q0 107 -48 179.5t-124 72.5z" />
<glyph unicode="|" horiz-adv-x="454" d="M147 -512v2048h160v-2048h-160z" />
<glyph unicode="}" horiz-adv-x="681" d="M59 -172h95q48 0 75 47.5t27 124.5v326q0 94 45 165t127 97v6q-77 15 -124.5 84.5t-47.5 175.5v301q0 101 -26.5 149t-82.5 48h-88v147h152q95 0 156 -85t61 -220v-291q0 -95 47.5 -162.5t124.5 -68.5v-160q-77 -1 -124.5 -69t-47.5 -164v-324q0 -70 -21 -125.5t-54 -86 t-68 -46.5t-68 -16h-158v147z" />
<glyph unicode="~" horiz-adv-x="1363" d="M197 594q57 95 122 137.5t150 42.5q52 0 100 -16t119 -51q7 -4 29 -15l30 -15l27 -13.5t28.5 -13t25.5 -10t26.5 -9t23.5 -4.5t25 -2q107 0 182 149l82 -127q-106 -180 -262 -180q-43 0 -92.5 14t-144.5 60q-149 73 -217 73q-101 0 -172 -147z" />
<glyph unicode="&#xa1;" horiz-adv-x="569" d="M150 872q0 55 40.5 95.5t94.5 40.5t94.5 -39.5t40.5 -96.5q0 -56 -40 -95.5t-95 -39.5t-95 39.5t-40 95.5zM190 -455v1033h197v-1033h-197z" />
<glyph unicode="&#xa2;" d="M147 485q0 204 118 342t325 168v135h110v-135q107 -6 197.5 -47.5t144.5 -107.5l-133 -121q-46 54 -100.5 85t-108.5 32v-701q127 3 220 107l118 -119q-117 -132 -338 -148v-135h-110v135q-198 17 -320.5 160.5t-122.5 349.5zM332 489q0 -134 70.5 -232.5t187.5 -121.5 v701q-118 -19 -188 -114.5t-70 -232.5z" />
<glyph unicode="&#xa3;" d="M147 0v172h209v500h-196v147h196v201q0 201 122.5 328t328.5 127q219 0 346 -127l-125 -144q-102 99 -203 99q-127 0 -199.5 -86t-72.5 -234v-164h332v-147h-332v-500h504v-172h-910z" />
<glyph unicode="&#xa4;" d="M43 317l100 101q-100 139 -100 309q0 173 100 309l-100 101l117 114l100 -98q141 100 309 100q169 0 310 -100l100 98l117 -114l-101 -101q101 -137 101 -309t-101 -309l101 -101l-117 -116l-100 100q-135 -100 -310 -100q-170 0 -309 100l-100 -100zM203 727 q0 -153 106.5 -260t259.5 -107t260 107t107 260q0 152 -107.5 259.5t-261.5 107.5q-152 0 -258 -108t-106 -259z" />
<glyph unicode="&#xa5;" d="M-10 1450h205l366 -647l379 647h209l-381 -633h238v-135h-316l-35 -57v-109h351v-135h-351v-381h-172v381h-350v135h350v109l-34 57h-316v135h234z" />
<glyph unicode="&#xa6;" horiz-adv-x="454" d="M147 358h160v-716h-160v716zM147 666v716h160v-716h-160z" />
<glyph unicode="&#xa7;" d="M127 -47l176 84q28 -77 93.5 -118.5t162.5 -41.5q94 0 150.5 47t56.5 129q0 55 -53.5 101t-175.5 102q-230 102 -304 176q-71 77 -71 168q0 213 200 309q-163 90 -163 242q0 150 121.5 243t293.5 93q130 0 231 -55.5t144 -149.5l-172 -94q-26 65 -83 96t-126 31 q-89 0 -144.5 -43t-55.5 -117q0 -64 52.5 -111t180.5 -102q53 -22 86.5 -38t82.5 -42.5t80 -53.5t61.5 -62.5t45.5 -80t15 -94.5q0 -87 -45 -156.5t-125 -111.5q133 -90 133 -248t-123 -254t-307 -96q-149 0 -257.5 63.5t-160.5 184.5zM346 657q0 -111 127 -174l232 -110 q58 36 90 84t32 96q0 54 -36 97.5t-117 82.5l-176 86q-80 -30 -116 -69t-36 -93z" />
<glyph unicode="&#xa8;" horiz-adv-x="491" d="M-90 1346q0 46 37.5 81t89.5 35q50 0 88.5 -34.5t38.5 -81.5q0 -56 -35.5 -92.5t-91.5 -36.5t-91.5 36.5t-35.5 92.5zM328 1346q0 46 37.5 81t89.5 35q50 0 88.5 -34.5t38.5 -81.5q0 -55 -36 -92t-91 -37t-91 36.5t-36 92.5z" />
<glyph unicode="&#xa9;" horiz-adv-x="1638" d="M57 725q0 122 38 237.5t108 210t163.5 165.5t210.5 110t242 39q150 0 289 -58.5t243.5 -158.5t167 -242.5t62.5 -302.5q0 -152 -59.5 -292.5t-160.5 -243.5t-243 -164.5t-299 -61.5q-150 0 -290 59t-243.5 160t-166 243t-62.5 300zM193 725q0 -125 49 -240.5 t131.5 -200.5t199.5 -135.5t246 -50.5q166 0 309.5 81t230.5 226t87 320q0 170 -84 314.5t-229 228.5t-316 84q-165 0 -308 -82t-229.5 -227t-86.5 -318zM371 731q0 219 120 343t328 124q157 0 260 -81.5t127 -231.5h-157q-44 166 -228 166q-140 0 -215.5 -82.5 t-75.5 -233.5q0 -143 82.5 -233t212.5 -90q184 0 224 174h157q-35 -152 -136.5 -237t-246.5 -85q-205 0 -328.5 126.5t-123.5 340.5z" />
<glyph unicode="&#xaa;" horiz-adv-x="690" d="M70 1034q0 61 29 103.5t84 65.5t122 32.5t156 9.5h35v19q0 45 -39.5 72.5t-100.5 27.5q-108 0 -182 -68l-72 93q100 86 254 86q143 0 209 -48t66 -149v-408h-135v91l-4 2q-51 -105 -203 -105q-95 0 -157 47.5t-62 128.5zM205 1042q0 -73 123 -73q81 0 124.5 36.5 t43.5 104.5v37h-25q-132 0 -199 -23.5t-67 -81.5z" />
<glyph unicode="&#xab;" horiz-adv-x="1024" d="M96 498l297 442l127 -84l-239 -358l241 -359l-127 -84zM502 498l297 442l127 -84l-240 -358l242 -359l-127 -84z" />
<glyph unicode="&#xac;" horiz-adv-x="1363" d="M135 700v160h1094v-571h-160v411h-934z" />
<glyph unicode="&#xad;" horiz-adv-x="647" d="M72 410v172h503v-172h-503z" />
<glyph unicode="&#xae;" horiz-adv-x="1638" d="M57 725q0 122 38 237.5t108 210t163.5 165.5t210.5 110t242 39q150 0 289 -58.5t243.5 -158.5t167 -242.5t62.5 -302.5q0 -152 -59.5 -292.5t-160.5 -243.5t-243 -164.5t-299 -61.5q-150 0 -290 59t-243.5 160t-166 243t-62.5 300zM193 725q0 -125 49 -240.5 t131.5 -200.5t199.5 -135.5t246 -50.5q166 0 309.5 81t230.5 226t87 320q0 170 -84 314.5t-229 228.5t-316 84q-165 0 -308 -82t-229.5 -227t-86.5 -318zM526 295v870h344q145 0 222 -67t77 -195q0 -103 -53.5 -164t-152.5 -75l225 -369h-168l-217 356h-117v-356h-160z M686 786h137q96 0 141.5 28t45.5 95q0 60 -41 90.5t-148 30.5h-135v-244z" />
<glyph unicode="&#xaf;" horiz-adv-x="491" d="M-49 1229v135h590v-135h-590z" />
<glyph unicode="&#xb0;" horiz-adv-x="819" d="M104 1169q0 125 91 215.5t215 90.5q127 0 216 -90.5t89 -215.5q0 -124 -88.5 -214.5t-216.5 -90.5q-125 0 -215.5 90.5t-90.5 214.5zM240 1169q0 -71 50 -120.5t120 -49.5q72 0 121 50.5t49 119.5q0 70 -49.5 120t-120.5 50q-70 0 -120 -49.5t-50 -120.5z" />
<glyph unicode="&#xb1;" horiz-adv-x="1363" d="M135 104v160h1094v-160h-1094zM135 645v160h467v334h160v-334h467v-160h-467v-307h-160v307h-467z" />
<glyph unicode="&#xb2;" horiz-adv-x="739" d="M53 592v156l363 323q55 49 75.5 83.5t20.5 70.5q0 51 -37.5 82.5t-95.5 31.5q-60 0 -96.5 -32t-42.5 -88l-172 12q10 115 93.5 179.5t217.5 64.5q139 0 222 -65.5t83 -180.5q0 -80 -40.5 -139t-121.5 -129l-272 -234h436v-135h-633z" />
<glyph unicode="&#xb3;" horiz-adv-x="739" d="M49 782l170 41q18 -54 54.5 -81t99.5 -27q65 0 111 37t46 94q0 131 -198 131h-45v135h51q90 0 130 29t40 88q0 50 -36.5 80t-96.5 30q-106 0 -142 -92l-170 41q28 88 108.5 137.5t195.5 49.5q135 0 218 -62.5t83 -167.5q0 -72 -44 -126.5t-116 -69.5v-5q84 -10 133 -67.5 t49 -142.5q0 -113 -89.5 -183.5t-227.5 -70.5q-130 0 -214 53t-110 149z" />
<glyph unicode="&#xb4;" horiz-adv-x="491" d="M111 1155l213 295h262l-305 -295h-170z" />
<glyph unicode="&#xb5;" d="M139 -467v1438h185v-582q0 -114 59 -178t162 -64q128 0 199 85t71 231v508h184v-971h-184v150h-4q-38 -81 -124.5 -128t-194.5 -47q-90 0 -168 37v-479h-185z" />
<glyph unicode="&#xb6;" horiz-adv-x="1228" d="M104 1030q0 198 124.5 309t338.5 111h514v-1708h-159v1573h-230v-1573h-160v909q-188 1 -308 110t-120 269z" />
<glyph unicode="&#xb7;" horiz-adv-x="569" d="M150 621q0 55 39.5 95t95.5 40q54 0 94.5 -39t40.5 -96q0 -56 -40 -96t-95 -40t-95 40t-40 96z" />
<glyph unicode="&#xb8;" horiz-adv-x="491" d="M10 -420l39 82q85 -31 160 -31q58 0 91.5 22.5t33.5 63.5q0 84 -92 84q-51 0 -101 -16l-43 37l125 178h101l-91 -125h52q99 0 147.5 -41t48.5 -106q0 -92 -72 -143.5t-186 -51.5q-113 0 -213 47z" />
<glyph unicode="&#xb9;" horiz-adv-x="739" d="M55 1274l262 201h146v-883h-148v735l-174 -147z" />
<glyph unicode="&#xba;" horiz-adv-x="790" d="M59 1165q0 141 92.5 225.5t243.5 84.5q152 0 244 -85t92 -225q0 -139 -92 -223t-244 -84t-244 84t-92 223zM207 1165q0 -86 49 -135t139 -49t139.5 49t49.5 135t-50 136.5t-141 50.5q-87 0 -136.5 -50.5t-49.5 -136.5z" />
<glyph unicode="&#xbb;" horiz-adv-x="1024" d="M96 856l127 84l299 -442l-297 -443l-127 84l240 359zM502 856l127 84l299 -442l-297 -443l-127 84l239 359z" />
<glyph unicode="&#xbc;" horiz-adv-x="1708" d="M68 1274l262 201h145v-883h-147v735l-174 -147zM311 0l899 1516l123 -66l-899 -1516zM977 193v118l375 572h161v-555h127v-135h-127v-193h-135v193h-401zM1124 328h242v383h-4z" />
<glyph unicode="&#xbd;" horiz-adv-x="1708" d="M63 1274l263 201h145v-883h-147v735l-174 -147zM287 0l899 1516l123 -66l-899 -1516zM1012 0v156l362 323q55 49 75.5 83.5t20.5 70.5q0 51 -38 83t-95 32q-59 0 -96 -32.5t-43 -88.5l-172 12q10 115 93.5 179.5t217.5 64.5q139 0 222 -65.5t83 -180.5q0 -55 -23.5 -105 t-54 -83.5t-83.5 -79.5l-273 -234h437v-135h-633z" />
<glyph unicode="&#xbe;" horiz-adv-x="1708" d="M47 782l170 41q37 -108 154 -108q65 0 111 37t46 94q0 131 -198 131h-45v135h30q97 0 144 24.5t47 92.5q0 50 -36.5 80t-96.5 30q-106 0 -142 -92l-170 41q28 88 108.5 137.5t195.5 49.5q135 0 218 -62.5t83 -167.5q0 -72 -44 -126.5t-116 -69.5v-5q84 -10 133 -67.5 t49 -142.5q0 -113 -89 -183.5t-228 -70.5q-130 0 -214 53t-110 149zM393 0l899 1516l123 -66l-899 -1516zM1018 193v118l375 572h161v-555h127v-135h-127v-193h-135v193h-401zM1178 328h241v383h-4z" />
<glyph unicode="&#xbf;" horiz-adv-x="1024" d="M66 -113q0 160 88 248l133 135q72 72 91 111t19 131v78h197v-133q0 -126 -62 -191q-70 -73 -147 -145q-63 -59 -93 -112t-30 -111q0 -92 63 -154.5t154 -62.5q95 0 160 61.5t78 167.5l209 -21q-26 -177 -148 -279t-303 -102q-182 0 -295.5 103t-113.5 276zM362 872 q0 54 41 95t95 41t94.5 -39.5t40.5 -96.5q0 -56 -40 -95.5t-95 -39.5q-54 0 -95 40.5t-41 94.5z" />
<glyph unicode="&#xc0;" horiz-adv-x="1441" d="M2 0l639 1450h178l621 -1450h-230l-145 358h-690l-144 -358h-229zM381 1827h262l213 -295h-170zM444 530h549l-270 666h-4z" />
<glyph unicode="&#xc1;" horiz-adv-x="1441" d="M2 0l639 1450h178l621 -1450h-230l-145 358h-690l-144 -358h-229zM444 530h549l-270 666h-4zM586 1532l213 295h262l-305 -295h-170z" />
<glyph unicode="&#xc2;" horiz-adv-x="1441" d="M2 0l639 1450h178l621 -1450h-230l-145 358h-690l-144 -358h-229zM383 1532l229 295h217l230 -295h-187l-151 197l-152 -197h-186zM444 530h549l-270 666h-4z" />
<glyph unicode="&#xc3;" horiz-adv-x="1441" d="M2 0l639 1450h178l621 -1450h-230l-145 358h-690l-144 -358h-229zM377 1556q17 98 73 155.5t134 57.5q52 0 151 -38q11 -5 32 -14t33.5 -14.5t31 -10t34.5 -4.5q75 0 101 90h98q-17 -101 -67.5 -157t-125.5 -56q-12 0 -24 1t-26 4t-22.5 5t-24.5 7.5t-21.5 7.5t-24 9.5 t-22.5 8.5q-10 4 -29.5 11.5t-29 11t-24.5 8t-27.5 6.5t-25.5 2q-34 0 -58.5 -24.5t-37.5 -66.5h-98zM444 530h549l-270 666h-4z" />
<glyph unicode="&#xc4;" horiz-adv-x="1441" d="M2 0l639 1450h178l621 -1450h-230l-145 358h-690l-144 -358h-229zM385 1722q0 46 37.5 81.5t89.5 35.5t89.5 -34t37.5 -83q0 -55 -35.5 -92t-91.5 -37t-91.5 37t-35.5 92zM444 530h549l-270 666h-4zM803 1722q0 47 37 82t90 35q52 0 89.5 -35.5t37.5 -81.5 q0 -56 -36 -92.5t-91 -36.5q-54 0 -90.5 37t-36.5 92z" />
<glyph unicode="&#xc5;" horiz-adv-x="1441" d="M2 0l639 1450h178l621 -1450h-230l-145 358h-690l-144 -358h-229zM444 530h549l-270 666h-4zM512 1690q0 84 62 143t147 59q86 0 147.5 -57.5t61.5 -142.5q0 -86 -60.5 -144.5t-148.5 -58.5q-83 0 -146 59t-63 142zM598 1690q0 -49 37.5 -82t85.5 -33q47 0 85 33.5 t38 81.5q0 50 -35.5 83t-87.5 33t-87.5 -33t-35.5 -83z" />
<glyph unicode="&#xc6;" horiz-adv-x="1972" d="M-16 0l938 1450h933v-184h-604v-432h568v-185h-568v-465h629v-184h-825v352h-623l-207 -352h-241zM539 537h516v729h-39z" />
<glyph unicode="&#xc7;" horiz-adv-x="1441" d="M96 715q0 163 54.5 305t151.5 245.5t239.5 162.5t310.5 59q155 0 289.5 -58.5t218.5 -166.5l-164 -125q-64 81 -155.5 123.5t-194.5 42.5q-158 0 -282.5 -78.5t-191.5 -213t-67 -298.5q0 -156 65.5 -284t190 -205t285.5 -77q239 0 379 195l166 -125q-86 -116 -231.5 -185 t-317.5 -69h-29l-63 -88h55q94 0 143 -42t49 -105q0 -91 -70.5 -143t-187.5 -52q-113 0 -213 47l39 82q85 -31 160 -31q58 0 91.5 22.5t33.5 63.5q0 42 -25 63t-67 21q-51 0 -101 -16l-43 37l107 151q-115 17 -215.5 68t-174.5 124.5t-127.5 163.5t-80.5 188.5t-27 197.5z " />
<glyph unicode="&#xc8;" horiz-adv-x="1251" d="M186 0v1450h936v-184h-739v-432h688v-185h-688v-465h776v-184h-973zM287 1827h262l213 -295h-170z" />
<glyph unicode="&#xc9;" horiz-adv-x="1251" d="M186 0v1450h936v-184h-739v-432h688v-185h-688v-465h776v-184h-973zM492 1532l213 295h262l-305 -295h-170z" />
<glyph unicode="&#xca;" horiz-adv-x="1251" d="M186 0v1450h936v-184h-739v-432h688v-185h-688v-465h776v-184h-973zM289 1532l229 295h217l230 -295h-187l-151 197l-152 -197h-186z" />
<glyph unicode="&#xcb;" horiz-adv-x="1251" d="M186 0v1450h936v-184h-739v-432h688v-185h-688v-465h776v-184h-973zM291 1722q0 46 37.5 81.5t89.5 35.5t89.5 -34t37.5 -83q0 -55 -35.5 -92t-91.5 -37t-91.5 37t-35.5 92zM709 1722q0 47 37 82t90 35q52 0 89.5 -35.5t37.5 -81.5q0 -56 -36 -92.5t-91 -36.5 q-54 0 -90.5 37t-36.5 92z" />
<glyph unicode="&#xcc;" horiz-adv-x="569" d="M-55 1827h262l213 -295h-170zM186 0v1450h197v-1450h-197z" />
<glyph unicode="&#xcd;" horiz-adv-x="569" d="M150 1532l212 295h263l-306 -295h-169zM186 0v1450h197v-1450h-197z" />
<glyph unicode="&#xce;" horiz-adv-x="569" d="M-53 1532l229 295h217l230 -295h-187l-151 197l-152 -197h-186zM186 0v1450h197v-1450h-197z" />
<glyph unicode="&#xcf;" horiz-adv-x="569" d="M-51 1722q0 46 37.5 81.5t89.5 35.5t89.5 -34t37.5 -83q0 -55 -35.5 -92t-91.5 -37t-91.5 37t-35.5 92zM186 0v1450h197v-1450h-197zM367 1722q0 47 37 82t90 35q52 0 89.5 -35.5t37.5 -81.5q0 -56 -36 -92.5t-91 -36.5q-54 0 -90.5 37t-36.5 92z" />
<glyph unicode="&#xd0;" horiz-adv-x="1517" d="M6 688v135h148v627h516q152 0 278 -41.5t212.5 -111t146 -163.5t87 -197t27.5 -212q0 -206 -99.5 -371.5t-278.5 -259.5t-404 -94h-485v688h-148zM350 184h258q85 0 168 18t162.5 60t140 103t97 154t36.5 206q0 106 -34 201.5t-100 172t-175 122t-248 45.5h-305v-443h479 v-135h-479v-504z" />
<glyph unicode="&#xd1;" horiz-adv-x="1630" d="M186 0v1450h258l799 -1192h4v1192h197v-1450h-250l-807 1192h-4v-1192h-197zM471 1556q17 98 73 155.5t134 57.5q52 0 151 -38q11 -4 32 -13.5t34 -15t31.5 -10t34.5 -4.5q74 0 100 90h98q-17 -102 -67 -157.5t-125 -55.5q-11 0 -22.5 1t-20.5 2.5t-22 5t-20 5.5t-21.5 7 t-19.5 7t-20.5 8t-19.5 7q-10 4 -29 11.5t-29 11t-24.5 8t-27 6.5t-25.5 2q-34 0 -59.5 -25t-37.5 -66h-98z" />
<glyph unicode="&#xd2;" horiz-adv-x="1703" d="M96 725q0 215 98 389.5t271 273.5t387 99q209 0 381 -95t273.5 -270.5t101.5 -396.5q0 -212 -95.5 -385.5t-269 -275t-391.5 -101.5q-157 0 -296.5 57t-240.5 157t-160 242.5t-59 305.5zM305 725q0 -158 66 -289t192.5 -210t288.5 -79q156 0 281.5 75.5t195.5 207.5 t70 295q0 119 -39.5 224.5t-109.5 184t-174 124t-226 45.5q-155 0 -280 -75.5t-195 -207.5t-70 -295zM512 1827h262l213 -295h-170z" />
<glyph unicode="&#xd3;" horiz-adv-x="1703" d="M96 725q0 215 98 389.5t271 273.5t387 99q209 0 381 -95t273.5 -270.5t101.5 -396.5q0 -212 -95.5 -385.5t-269 -275t-391.5 -101.5q-157 0 -296.5 57t-240.5 157t-160 242.5t-59 305.5zM305 725q0 -158 66 -289t192.5 -210t288.5 -79q156 0 281.5 75.5t195.5 207.5 t70 295q0 119 -39.5 224.5t-109.5 184t-174 124t-226 45.5q-155 0 -280 -75.5t-195 -207.5t-70 -295zM717 1532l213 295h262l-305 -295h-170z" />
<glyph unicode="&#xd4;" horiz-adv-x="1703" d="M96 725q0 215 98 389.5t271 273.5t387 99q209 0 381 -95t273.5 -270.5t101.5 -396.5q0 -212 -95.5 -385.5t-269 -275t-391.5 -101.5q-157 0 -296.5 57t-240.5 157t-160 242.5t-59 305.5zM305 725q0 -158 66 -289t192.5 -210t288.5 -79q156 0 281.5 75.5t195.5 207.5 t70 295q0 119 -39.5 224.5t-109.5 184t-174 124t-226 45.5q-155 0 -280 -75.5t-195 -207.5t-70 -295zM514 1532l229 295h218l229 -295h-186l-152 197l-152 -197h-186z" />
<glyph unicode="&#xd5;" horiz-adv-x="1703" d="M96 725q0 215 98 389.5t271 273.5t387 99q209 0 381 -95t273.5 -270.5t101.5 -396.5q0 -212 -95.5 -385.5t-269 -275t-391.5 -101.5q-157 0 -296.5 57t-240.5 157t-160 242.5t-59 305.5zM305 725q0 -158 66 -289t192.5 -210t288.5 -79q156 0 281.5 75.5t195.5 207.5 t70 295q0 119 -39.5 224.5t-109.5 184t-174 124t-226 45.5q-155 0 -280 -75.5t-195 -207.5t-70 -295zM508 1556q17 98 73 155.5t134 57.5q52 0 151 -38q11 -5 32 -14t33.5 -14.5t31 -10t34.5 -4.5q75 0 101 90h98q-17 -102 -67 -157.5t-125 -55.5q-11 0 -22.5 1t-20.5 2.5 t-22 5t-20 5.5t-21.5 7t-19.5 7t-20.5 8t-19.5 7q-10 4 -29.5 11.5t-29 11t-24.5 8t-27.5 6.5t-25.5 2q-34 0 -58.5 -24.5t-37.5 -66.5h-98z" />
<glyph unicode="&#xd6;" horiz-adv-x="1703" d="M96 725q0 215 98 389.5t271 273.5t387 99q209 0 381 -95t273.5 -270.5t101.5 -396.5q0 -212 -95.5 -385.5t-269 -275t-391.5 -101.5q-157 0 -296.5 57t-240.5 157t-160 242.5t-59 305.5zM305 725q0 -158 66 -289t192.5 -210t288.5 -79q156 0 281.5 75.5t195.5 207.5 t70 295q0 119 -39.5 224.5t-109.5 184t-174 124t-226 45.5q-155 0 -280 -75.5t-195 -207.5t-70 -295zM516 1722q0 46 37.5 81.5t89.5 35.5t89.5 -34t37.5 -83q0 -55 -35.5 -92t-91.5 -37t-91.5 37t-35.5 92zM934 1722q0 47 37 82t90 35q52 0 89.5 -35.5t37.5 -81.5 q0 -56 -36 -92.5t-91 -36.5q-54 0 -90.5 37t-36.5 92z" />
<glyph unicode="&#xd7;" horiz-adv-x="1363" d="M135 1055l113 112l434 -434l436 434l111 -112l-434 -434l434 -435l-115 -112l-432 434l-432 -434l-111 114l430 433z" />
<glyph unicode="&#xd8;" horiz-adv-x="1703" d="M96 725q0 212 95.5 386t269 275t391.5 101q270 0 471 -156l170 185l86 -78l-170 -185q95 -101 147 -236.5t52 -291.5q0 -213 -96 -387t-269.5 -274.5t-390.5 -100.5q-274 0 -479 162l-172 -186l-88 77l174 191q-191 213 -191 518zM305 725q0 -214 119 -371l766 834 q-144 115 -340 115q-236 0 -390.5 -164.5t-154.5 -413.5zM504 268q150 -121 348 -121q156 0 281.5 74.5t195.5 206.5t70 297q0 227 -127 381z" />
<glyph unicode="&#xd9;" horiz-adv-x="1441" d="M160 522v928h196v-895q0 -52 10.5 -104.5t37 -108t66.5 -98t105 -70t146 -27.5q78 0 141.5 25.5t104 67t68 96t39 109.5t11.5 110v895h197v-928q0 -106 -38.5 -206t-108 -179t-177.5 -126.5t-237 -47.5q-125 0 -231.5 45.5t-178 122t-111.5 178t-40 213.5zM381 1827h262 l213 -295h-170z" />
<glyph unicode="&#xda;" horiz-adv-x="1441" d="M160 522v928h196v-895q0 -52 10.5 -104.5t37 -108t66.5 -98t105 -70t146 -27.5q78 0 141.5 25.5t104 67t68 96t39 109.5t11.5 110v895h197v-928q0 -106 -38.5 -206t-108 -179t-177.5 -126.5t-237 -47.5q-125 0 -231.5 45.5t-178 122t-111.5 178t-40 213.5zM586 1532 l213 295h262l-305 -295h-170z" />
<glyph unicode="&#xdb;" horiz-adv-x="1441" d="M160 522v928h196v-895q0 -52 10.5 -104.5t37 -108t66.5 -98t105 -70t146 -27.5q78 0 141.5 25.5t104 67t68 96t39 109.5t11.5 110v895h197v-928q0 -106 -38.5 -206t-108 -179t-177.5 -126.5t-237 -47.5q-125 0 -231.5 45.5t-178 122t-111.5 178t-40 213.5zM383 1532 l229 295h217l230 -295h-187l-151 197l-152 -197h-186z" />
<glyph unicode="&#xdc;" horiz-adv-x="1441" d="M160 522v928h196v-895q0 -52 10.5 -104.5t37 -108t66.5 -98t105 -70t146 -27.5q78 0 141.5 25.5t104 67t68 96t39 109.5t11.5 110v895h197v-928q0 -106 -38.5 -206t-108 -179t-177.5 -126.5t-237 -47.5q-125 0 -231.5 45.5t-178 122t-111.5 178t-40 213.5zM385 1722 q0 46 37.5 81.5t89.5 35.5t89.5 -34t37.5 -83q0 -55 -35.5 -92t-91.5 -37t-91.5 37t-35.5 92zM803 1722q0 47 37 82t90 35q52 0 89.5 -35.5t37.5 -81.5q0 -56 -36 -92.5t-91 -36.5q-54 0 -90.5 37t-36.5 92z" />
<glyph unicode="&#xdd;" horiz-adv-x="1253" d="M-20 1450h251l396 -637l407 637h240l-549 -832v-618h-197v618zM492 1532l213 295h262l-305 -295h-170z" />
<glyph unicode="&#xde;" horiz-adv-x="1214" d="M186 0v1450h197v-297h324q212 0 333 -105.5t121 -299.5q0 -192 -120 -299t-334 -107h-324v-342h-197zM383 514h266q303 0 303 234q0 233 -303 233h-266v-467z" />
<glyph unicode="&#xdf;" horiz-adv-x="1251" d="M139 0v1055q0 266 112 392t347 126q185 0 301.5 -101.5t116.5 -269.5q0 -123 -60 -203.5t-168 -113.5v-4q159 -26 254 -142t95 -288q0 -214 -137.5 -345t-358.5 -131q-67 0 -145 19v166q70 -13 108 -13q155 0 245.5 85t90.5 235q0 149 -95 233t-270 84h-20v172h29 q114 0 174.5 62t60.5 162q0 105 -61.5 163t-167.5 58q-266 0 -266 -328v-1073h-185z" />
<glyph unicode="&#xe0;" horiz-adv-x="1062" d="M92 266q0 155 130 245.5t403 90.5h137v35q0 97 -65 154t-169 57q-78 0 -136.5 -23.5t-137.5 -87.5l-111 115q75 69 177 106t208 37q105 0 186 -27.5t127.5 -74t69.5 -101t23 -114.5v-520q0 -90 8 -158h-164q-6 74 -6 147h-4q-61 -91 -144 -131.5t-196 -40.5 q-149 0 -242.5 79t-93.5 212zM193 1450h262l213 -295h-170zM276 281q0 -76 52.5 -117t156.5 -41q127 0 202 76t75 215v53h-105q-108 0 -185 -15.5t-118.5 -43t-59.5 -58.5t-18 -69z" />
<glyph unicode="&#xe1;" horiz-adv-x="1062" d="M92 266q0 155 130 245.5t403 90.5h137v35q0 97 -65 154t-169 57q-78 0 -136.5 -23.5t-137.5 -87.5l-111 115q75 69 177 106t208 37q105 0 186 -27.5t127.5 -74t69.5 -101t23 -114.5v-520q0 -90 8 -158h-164q-6 74 -6 147h-4q-61 -91 -144 -131.5t-196 -40.5 q-149 0 -242.5 79t-93.5 212zM276 281q0 -76 52.5 -117t156.5 -41q127 0 202 76t75 215v53h-105q-108 0 -185 -15.5t-118.5 -43t-59.5 -58.5t-18 -69zM397 1155l213 295h262l-305 -295h-170z" />
<glyph unicode="&#xe2;" horiz-adv-x="1062" d="M92 266q0 155 130 245.5t403 90.5h137v35q0 97 -65 154t-169 57q-78 0 -136.5 -23.5t-137.5 -87.5l-111 115q75 69 177 106t208 37q105 0 186 -27.5t127.5 -74t69.5 -101t23 -114.5v-520q0 -90 8 -158h-164q-6 74 -6 147h-4q-61 -91 -144 -131.5t-196 -40.5 q-149 0 -242.5 79t-93.5 212zM195 1155l229 295h217l229 -295h-186l-152 197l-151 -197h-186zM276 281q0 -76 52.5 -117t156.5 -41q127 0 202 76t75 215v53h-105q-108 0 -185 -15.5t-118.5 -43t-59.5 -58.5t-18 -69z" />
<glyph unicode="&#xe3;" horiz-adv-x="1062" d="M92 266q0 155 130 245.5t403 90.5h137v35q0 97 -65 154t-169 57q-78 0 -136.5 -23.5t-137.5 -87.5l-111 115q75 69 177 106t208 37q105 0 186 -27.5t127.5 -74t69.5 -101t23 -114.5v-520q0 -90 8 -158h-164q-6 74 -6 147h-4q-61 -91 -144 -131.5t-196 -40.5 q-149 0 -242.5 79t-93.5 212zM188 1180q19 99 74 156t133 57q50 0 152 -39q11 -5 32 -14t33.5 -14.5t31 -10t34.5 -4.5q74 0 100 90h99q-17 -101 -67.5 -157t-125.5 -56q-11 0 -22.5 1t-20.5 2.5t-22 5t-20 5.5t-21.5 7t-19.5 7t-20.5 8t-19.5 7q-10 4 -29 11.5t-29 11 t-24.5 8t-27 6.5t-25.5 2q-34 0 -59 -24.5t-37 -65.5h-99zM276 281q0 -76 52.5 -117t156.5 -41q127 0 202 76t75 215v53h-105q-108 0 -185 -15.5t-118.5 -43t-59.5 -58.5t-18 -69z" />
<glyph unicode="&#xe4;" horiz-adv-x="1062" d="M92 266q0 155 130 245.5t403 90.5h137v35q0 97 -65 154t-169 57q-78 0 -136.5 -23.5t-137.5 -87.5l-111 115q75 69 177 106t208 37q105 0 186 -27.5t127.5 -74t69.5 -101t23 -114.5v-520q0 -90 8 -158h-164q-6 74 -6 147h-4q-61 -91 -144 -131.5t-196 -40.5 q-149 0 -242.5 79t-93.5 212zM197 1346q0 46 37.5 81t89.5 35q50 0 88.5 -34.5t38.5 -81.5q0 -56 -35.5 -92.5t-91.5 -36.5t-91.5 36.5t-35.5 92.5zM276 281q0 -76 52.5 -117t156.5 -41q127 0 202 76t75 215v53h-105q-108 0 -185 -15.5t-118.5 -43t-59.5 -58.5t-18 -69z M614 1346q0 46 37.5 81t89.5 35q50 0 88.5 -34.5t38.5 -81.5q0 -55 -36 -92t-91 -37t-91 36.5t-36 92.5z" />
<glyph unicode="&#xe5;" horiz-adv-x="1062" d="M92 266q0 155 130 245.5t403 90.5h137v35q0 97 -65 154t-169 57q-78 0 -136.5 -23.5t-137.5 -87.5l-111 115q75 69 177 106t208 37q105 0 186 -27.5t127.5 -74t69.5 -101t23 -114.5v-520q0 -90 8 -158h-164q-6 74 -6 147h-4q-61 -91 -144 -131.5t-196 -40.5 q-149 0 -242.5 79t-93.5 212zM276 281q0 -76 52.5 -117t156.5 -41q127 0 202 76t75 215v53h-105q-108 0 -185 -15.5t-118.5 -43t-59.5 -58.5t-18 -69zM324 1333q0 83 61.5 143t146.5 60q87 0 148 -58.5t61 -142.5q0 -85 -61.5 -143.5t-147.5 -58.5q-85 0 -146.5 59 t-61.5 141zM410 1333q0 -46 36.5 -80t85.5 -34q51 0 87 34t36 80q0 50 -35.5 83.5t-87.5 33.5t-87 -33t-35 -84z" />
<glyph unicode="&#xe6;" horiz-adv-x="1744" d="M80 276q0 142 105.5 215.5t289.5 73.5h295v25q0 122 -67 190t-177 68q-75 0 -138.5 -25.5t-135.5 -85.5l-115 117q78 67 179.5 104t207.5 37q119 0 210 -40.5t138 -114.5q134 155 340 155q117 0 206.5 -43t142 -116t78.5 -161t26 -188v-69h-723q1 -129 84 -212t209 -83 q84 0 148.5 41.5t103.5 111.5l149 -112q-91 -107 -185.5 -154t-219.5 -47q-262 0 -379 199q-149 -199 -397 -199q-172 0 -273.5 87.5t-101.5 225.5zM276 276q0 -70 60 -117.5t143 -47.5q124 0 207.5 76.5t83.5 203.5v27h-299q-195 0 -195 -142zM942 565h526 q-12 271 -260 271q-116 0 -190.5 -73.5t-75.5 -197.5z" />
<glyph unicode="&#xe7;" horiz-adv-x="987" d="M92 481q0 226 142 369t366 143q109 0 206 -38.5t167 -114.5l-139 -127q-102 108 -242 108q-137 0 -220 -96t-83 -248q0 -142 88.5 -236t224.5 -94q76 0 131.5 26.5t104.5 82.5l131 -131q-128 -142 -353 -148l-73 -102h51q97 0 147 -41t50 -106q0 -92 -71.5 -143.5 t-184.5 -51.5q-119 0 -216 47l39 82q82 -31 158 -31q59 0 93 22.5t34 63.5q0 42 -25 63t-67 21q-47 0 -100 -16l-43 37l110 162q-196 26 -311 161.5t-115 335.5z" />
<glyph unicode="&#xe8;" d="M82 485q0 217 141.5 363.5t360.5 146.5q218 0 345.5 -138.5t127.5 -387.5v-51h-778q0 -122 97.5 -202.5t229.5 -80.5q147 0 266 146l140 -107q-156 -199 -430 -199q-219 0 -359.5 140.5t-140.5 369.5zM229 1450h263l213 -295h-170zM279 565h581q-4 136 -77.5 209.5 t-202.5 73.5q-70 0 -129 -27.5t-95.5 -70.5t-56.5 -91.5t-20 -93.5z" />
<glyph unicode="&#xe9;" d="M82 485q0 217 141.5 363.5t360.5 146.5q218 0 345.5 -138.5t127.5 -387.5v-51h-778q0 -122 97.5 -202.5t229.5 -80.5q147 0 266 146l140 -107q-156 -199 -430 -199q-219 0 -359.5 140.5t-140.5 369.5zM279 565h581q-4 136 -77.5 209.5t-202.5 73.5q-70 0 -129 -27.5 t-95.5 -70.5t-56.5 -91.5t-20 -93.5zM434 1155l213 295h262l-305 -295h-170z" />
<glyph unicode="&#xea;" d="M82 485q0 217 141.5 363.5t360.5 146.5q218 0 345.5 -138.5t127.5 -387.5v-51h-778q0 -122 97.5 -202.5t229.5 -80.5q147 0 266 146l140 -107q-156 -199 -430 -199q-219 0 -359.5 140.5t-140.5 369.5zM231 1155l230 295h217l229 -295h-186l-152 197l-151 -197h-187z M279 565h581q-4 136 -77.5 209.5t-202.5 73.5q-70 0 -129 -27.5t-95.5 -70.5t-56.5 -91.5t-20 -93.5z" />
<glyph unicode="&#xeb;" d="M82 485q0 217 141.5 363.5t360.5 146.5q218 0 345.5 -138.5t127.5 -387.5v-51h-778q0 -122 97.5 -202.5t229.5 -80.5q147 0 266 146l140 -107q-156 -199 -430 -199q-219 0 -359.5 140.5t-140.5 369.5zM233 1346q0 46 37.5 81t89.5 35q50 0 88.5 -34.5t38.5 -81.5 q0 -56 -35.5 -92.5t-91.5 -36.5t-91.5 36.5t-35.5 92.5zM279 565h581q-4 136 -77.5 209.5t-202.5 73.5q-70 0 -129 -27.5t-95.5 -70.5t-56.5 -91.5t-20 -93.5zM651 1346q0 46 37.5 81t89.5 35q50 0 88.5 -34.5t38.5 -81.5q0 -55 -36 -92t-91 -37t-91 36.5t-36 92.5z" />
<glyph unicode="&#xec;" horiz-adv-x="491" d="M-94 1450h262l213 -295h-170zM154 0v971h184v-971h-184z" />
<glyph unicode="&#xed;" horiz-adv-x="491" d="M111 1155l213 295h262l-305 -295h-170zM154 0v971h184v-971h-184z" />
<glyph unicode="&#xee;" horiz-adv-x="491" d="M-92 1155l229 295h217l230 -295h-187l-151 197l-152 -197h-186zM154 0v971h184v-971h-184z" />
<glyph unicode="&#xef;" horiz-adv-x="491" d="M-90 1346q0 46 37.5 81t89.5 35q50 0 88.5 -34.5t38.5 -81.5q0 -56 -35.5 -92.5t-91.5 -36.5t-91.5 36.5t-35.5 92.5zM154 0v971h184v-971h-184zM328 1346q0 46 37.5 81t89.5 35q50 0 88.5 -34.5t38.5 -81.5q0 -55 -36 -92t-91 -37t-91 36.5t-36 92.5z" />
<glyph unicode="&#xf0;" horiz-adv-x="1216" d="M92 485q0 104 40 198t108.5 162.5t164 109t201.5 40.5q173 0 258 -102l4 4q-103 180 -295 369l-219 -107l-96 94l217 109l-174 145l162 95l182 -160l221 106l107 -90l-230 -112q200 -214 290.5 -404t90.5 -391q0 -267 -139 -421.5t-377 -154.5q-109 0 -206 41.5 t-164.5 111t-106.5 163t-39 194.5zM289 485q0 -152 88 -245t231 -93q145 0 232.5 92t87.5 246q0 153 -89.5 245.5t-232.5 92.5q-141 0 -229 -94t-88 -244z" />
<glyph unicode="&#xf1;" d="M139 0v971h185v-150h4q38 81 125 127.5t194 46.5q162 0 257 -98.5t95 -263.5v-633h-184v580q0 113 -58.5 178t-162.5 65q-127 0 -198.5 -84t-71.5 -231v-508h-185zM225 1180q19 99 74 156t133 57q50 0 152 -39q11 -5 32 -14t33.5 -14.5t31 -10t34.5 -4.5q74 0 100 90h98 q-17 -102 -67 -157.5t-125 -55.5q-11 0 -22.5 1t-20.5 2.5t-22 5t-20 5.5t-21.5 7t-19.5 7t-20.5 8t-19.5 7q-10 4 -29 11.5t-29 11t-24.5 8t-27 6.5t-25.5 2q-34 0 -59 -24.5t-37 -65.5h-99z" />
<glyph unicode="&#xf2;" horiz-adv-x="1216" d="M92 485q0 139 68 256.5t187 185.5t261 68q137 0 254.5 -64.5t189.5 -182.5t72 -263q0 -139 -68 -256.5t-187 -185.5t-261 -68q-139 0 -257.5 66.5t-188.5 184.5t-70 259zM268 1450h262l213 -295h-170zM289 485q0 -152 88 -245t231 -93q144 0 232 93.5t88 244.5 q0 153 -89.5 245.5t-232.5 92.5q-141 0 -229 -94t-88 -244z" />
<glyph unicode="&#xf3;" horiz-adv-x="1216" d="M92 485q0 139 68 256.5t187 185.5t261 68q137 0 254.5 -64.5t189.5 -182.5t72 -263q0 -139 -68 -256.5t-187 -185.5t-261 -68q-139 0 -257.5 66.5t-188.5 184.5t-70 259zM289 485q0 -152 88 -245t231 -93q144 0 232 93.5t88 244.5q0 153 -89.5 245.5t-232.5 92.5 q-141 0 -229 -94t-88 -244zM475 1155l213 295h262l-305 -295h-170z" />
<glyph unicode="&#xf4;" horiz-adv-x="1216" d="M92 485q0 139 68 256.5t187 185.5t261 68q137 0 254.5 -64.5t189.5 -182.5t72 -263q0 -139 -68 -256.5t-187 -185.5t-261 -68q-139 0 -257.5 66.5t-188.5 184.5t-70 259zM270 1155l230 295h217l229 -295h-186l-152 197l-151 -197h-187zM289 485q0 -152 88 -245t231 -93 q144 0 232 93.5t88 244.5q0 153 -89.5 245.5t-232.5 92.5q-141 0 -229 -94t-88 -244z" />
<glyph unicode="&#xf5;" horiz-adv-x="1216" d="M92 485q0 139 68 256.5t187 185.5t261 68q137 0 254.5 -64.5t189.5 -182.5t72 -263q0 -139 -68 -256.5t-187 -185.5t-261 -68q-139 0 -257.5 66.5t-188.5 184.5t-70 259zM264 1180q19 99 74 156t133 57q50 0 152 -39q11 -5 32 -14t33.5 -14.5t31 -10t34.5 -4.5 q74 0 100 90h98q-17 -102 -67 -157.5t-125 -55.5q-11 0 -22.5 1t-20.5 2.5t-22 5t-20 5.5t-21.5 7t-19.5 7t-20.5 8t-19.5 7q-10 4 -29 11.5t-29 11t-24.5 8t-27 6.5t-25.5 2q-34 0 -59.5 -24.5t-37.5 -65.5h-98zM289 485q0 -152 88 -245t231 -93q144 0 232 93.5t88 244.5 q0 153 -89.5 245.5t-232.5 92.5q-141 0 -229 -94t-88 -244z" />
<glyph unicode="&#xf6;" horiz-adv-x="1216" d="M92 485q0 139 68 256.5t187 185.5t261 68q137 0 254.5 -64.5t189.5 -182.5t72 -263q0 -139 -68 -256.5t-187 -185.5t-261 -68q-139 0 -257.5 66.5t-188.5 184.5t-70 259zM272 1346q0 46 37.5 81t89.5 35q50 0 88.5 -34.5t38.5 -81.5q0 -56 -35.5 -92.5t-91.5 -36.5 t-91.5 36.5t-35.5 92.5zM289 485q0 -152 88 -245t231 -93q144 0 232 93.5t88 244.5q0 153 -89.5 245.5t-232.5 92.5q-141 0 -229 -94t-88 -244zM690 1346q0 46 37.5 81t89.5 35q50 0 88.5 -34.5t38.5 -81.5q0 -55 -36 -92t-91 -37t-91 36.5t-36 92.5z" />
<glyph unicode="&#xf7;" horiz-adv-x="1363" d="M135 539v159h1094v-159h-1094zM547 274q0 56 40 96t95 40q57 0 96 -41t39 -95q0 -56 -39.5 -95.5t-95.5 -39.5q-55 0 -95 40.5t-40 94.5zM547 963q0 55 39.5 95t95.5 40q54 0 94.5 -40t40.5 -95q0 -56 -40 -96t-95 -40t-95 40t-40 96z" />
<glyph unicode="&#xf8;" horiz-adv-x="1216" d="M84 8l137 139q-129 139 -129 338q0 140 68.5 257.5t187.5 185t260 67.5q195 0 332 -118l154 153l73 -74l-153 -155q110 -135 110 -316q0 -139 -68 -256.5t-187 -185.5t-261 -68q-169 0 -307 101l-141 -142zM289 485q0 -124 61 -209l467 476q-84 71 -211 71 q-141 0 -229 -94t-88 -244zM426 203q74 -56 182 -56q144 0 232 93.5t88 244.5q0 109 -45 183z" />
<glyph unicode="&#xf9;" d="M139 338v633h185v-582q0 -114 59 -178t162 -64q128 0 199 85t71 231v508h184v-971h-184v150h-4q-38 -81 -124.5 -128t-194.5 -47q-161 0 -257 99t-96 264zM229 1450h263l213 -295h-170z" />
<glyph unicode="&#xfa;" d="M139 338v633h185v-582q0 -114 59 -178t162 -64q128 0 199 85t71 231v508h184v-971h-184v150h-4q-38 -81 -124.5 -128t-194.5 -47q-161 0 -257 99t-96 264zM434 1155l213 295h262l-305 -295h-170z" />
<glyph unicode="&#xfb;" d="M139 338v633h185v-582q0 -114 59 -178t162 -64q128 0 199 85t71 231v508h184v-971h-184v150h-4q-38 -81 -124.5 -128t-194.5 -47q-161 0 -257 99t-96 264zM231 1155l230 295h217l229 -295h-186l-152 197l-151 -197h-187z" />
<glyph unicode="&#xfc;" d="M139 338v633h185v-582q0 -114 59 -178t162 -64q128 0 199 85t71 231v508h184v-971h-184v150h-4q-38 -81 -124.5 -128t-194.5 -47q-161 0 -257 99t-96 264zM233 1346q0 46 37.5 81t89.5 35q50 0 88.5 -34.5t38.5 -81.5q0 -56 -35.5 -92.5t-91.5 -36.5t-91.5 36.5 t-35.5 92.5zM651 1346q0 46 37.5 81t89.5 35q50 0 88.5 -34.5t38.5 -81.5q0 -55 -36 -92t-91 -37t-91 36.5t-36 92.5z" />
<glyph unicode="&#xfd;" horiz-adv-x="1024" d="M23 971h213l288 -758h4l275 758h198l-458 -1176q-23 -59 -42 -98t-47 -78t-60.5 -61.5t-79 -36t-105.5 -13.5q-95 0 -164 27l23 166q62 -20 110 -20q80 0 119 37.5t72 123.5l57 152zM377 1155l213 295h262l-305 -295h-170z" />
<glyph unicode="&#xfe;" horiz-adv-x="1251" d="M139 -467v2015h185v-717h4q50 76 143 120t195 44q217 0 355 -142.5t138 -367.5q0 -219 -135.5 -364.5t-355.5 -145.5q-102 0 -193.5 43.5t-146.5 120.5h-4v-606h-185zM324 485q0 -151 87.5 -244.5t231.5 -93.5t232 93.5t88 244.5q0 153 -89.5 245.5t-232.5 92.5 q-141 0 -229 -92.5t-88 -245.5z" />
<glyph unicode="&#xff;" horiz-adv-x="1024" d="M23 971h213l288 -758h4l275 758h198l-458 -1176q-23 -59 -42 -98t-47 -78t-60.5 -61.5t-79 -36t-105.5 -13.5q-95 0 -164 27l23 166q62 -20 110 -20q80 0 119 37.5t72 123.5l57 152zM176 1346q0 46 37.5 81t89.5 35q50 0 88.5 -34.5t38.5 -81.5q0 -56 -35.5 -92.5 t-91.5 -36.5t-91.5 36.5t-35.5 92.5zM594 1346q0 46 37.5 81t89.5 35q50 0 88.5 -34.5t38.5 -81.5q0 -55 -36 -92t-91 -37t-91 36.5t-36 92.5z" />
<glyph unicode="&#x152;" horiz-adv-x="2009" d="M119 725q0 142 42 260.5t117 203.5t179 144.5t226.5 88t260.5 28.5h922v-184h-602v-432h565v-185h-565v-465h626v-184h-946q-241 0 -427 86t-292 251.5t-106 387.5zM328 725q0 -248 166.5 -394.5t437.5 -146.5h135v1082h-133q-171 0 -307.5 -64t-217.5 -188.5t-81 -288.5 z" />
<glyph unicode="&#x153;" horiz-adv-x="1896" d="M80 485q0 220 141 365t363 145q128 0 224 -45t169 -141q143 186 383 186q143 0 248 -65.5t157 -175.5t52 -250v-86h-736q2 -131 80 -207t213 -76q164 0 252 141l152 -100q-143 -201 -408 -201q-130 0 -235 49.5t-162 139.5q-71 -99 -168 -144t-232 -45 q-224 0 -358.5 140.5t-134.5 369.5zM276 485q0 -155 81.5 -252.5t215.5 -97.5q156 0 240 91t84 259q0 158 -82.5 254.5t-226.5 96.5q-141 0 -226.5 -95t-85.5 -256zM1081 565h539q-5 126 -78.5 204.5t-187.5 78.5q-109 0 -188.5 -83t-84.5 -200z" />
<glyph unicode="&#x178;" horiz-adv-x="1253" d="M-20 1450h251l396 -637l407 637h240l-549 -832v-618h-197v618zM291 1722q0 46 37.5 81.5t89.5 35.5t89.5 -34t37.5 -83q0 -55 -35.5 -92t-91.5 -37t-91.5 37t-35.5 92zM709 1722q0 47 37 82t90 35q52 0 89.5 -35.5t37.5 -81.5q0 -56 -36 -92.5t-91 -36.5q-54 0 -90.5 37 t-36.5 92z" />
<glyph unicode="&#x2c6;" horiz-adv-x="491" d="M-92 1155l229 295h217l230 -295h-187l-151 197l-152 -197h-186z" />
<glyph unicode="&#x2dc;" horiz-adv-x="491" d="M-98 1180q19 99 74 156t133 57q10 0 21 -1t19 -2t20 -4.5t18 -5t20 -6.5t17 -6t19 -7t17 -7q11 -5 32 -14t33.5 -14.5t31 -10t34.5 -4.5q75 0 101 90h98q-17 -101 -67.5 -157t-125.5 -56q-11 0 -22.5 1t-20.5 2.5t-22 5t-20 5.5t-21.5 7t-19.5 7t-20.5 8t-19.5 7 q-10 4 -29 11.5t-29 11t-24.5 8t-27 6.5t-25.5 2q-34 0 -59 -24.5t-37 -65.5h-98z" />
<glyph unicode="&#x2000;" horiz-adv-x="946" />
<glyph unicode="&#x2001;" horiz-adv-x="1892" />
<glyph unicode="&#x2002;" horiz-adv-x="946" />
<glyph unicode="&#x2003;" horiz-adv-x="1892" />
<glyph unicode="&#x2004;" horiz-adv-x="630" />
<glyph unicode="&#x2005;" horiz-adv-x="473" />
<glyph unicode="&#x2006;" horiz-adv-x="315" />
<glyph unicode="&#x2007;" horiz-adv-x="315" />
<glyph unicode="&#x2008;" horiz-adv-x="236" />
<glyph unicode="&#x2009;" horiz-adv-x="378" />
<glyph unicode="&#x200a;" horiz-adv-x="105" />
<glyph unicode="&#x2010;" horiz-adv-x="647" d="M72 410v172h503v-172h-503z" />
<glyph unicode="&#x2011;" horiz-adv-x="647" d="M72 410v172h503v-172h-503z" />
<glyph unicode="&#x2012;" horiz-adv-x="647" d="M72 410v172h503v-172h-503z" />
<glyph unicode="&#x2013;" horiz-adv-x="1024" d="M0 418v160h1024v-160h-1024z" />
<glyph unicode="&#x2014;" horiz-adv-x="2048" d="M0 418v160h2048v-160h-2048z" />
<glyph unicode="&#x2018;" horiz-adv-x="569" d="M115 946l172 504h168l-142 -504h-198z" />
<glyph unicode="&#x2019;" horiz-adv-x="569" d="M115 946l141 504h199l-172 -504h-168z" />
<glyph unicode="&#x201a;" horiz-adv-x="569" d="M115 -270l141 503h199l-172 -503h-168z" />
<glyph unicode="&#x201c;" horiz-adv-x="1062" d="M180 946l172 504h168l-141 -504h-199zM543 946l172 504h168l-142 -504h-198z" />
<glyph unicode="&#x201d;" horiz-adv-x="1062" d="M180 946l142 504h198l-172 -504h-168zM543 946l141 504h199l-172 -504h-168z" />
<glyph unicode="&#x201e;" horiz-adv-x="1062" d="M180 -270l142 503h198l-172 -503h-168zM543 -270l141 503h199l-172 -503h-168z" />
<glyph unicode="&#x2022;" horiz-adv-x="1024" d="M150 725q0 151 105.5 256.5t256.5 105.5q149 0 255.5 -105t106.5 -257q0 -151 -106.5 -257t-255.5 -106t-255.5 106t-106.5 257z" />
<glyph unicode="&#x2026;" horiz-adv-x="2048" d="M207 123q0 56 40 95.5t95 39.5q56 0 95.5 -40t39.5 -95t-39.5 -95t-95.5 -40q-57 0 -96 39t-39 96zM889 123q0 56 40 95.5t95 39.5q56 0 95.5 -40t39.5 -95t-39.5 -95t-95.5 -40q-57 0 -96 39t-39 96zM1571 123q0 56 40 95.5t95 39.5q56 0 95.5 -40t39.5 -95t-39.5 -95 t-95.5 -40q-57 0 -96 39t-39 96z" />
<glyph unicode="&#x202f;" horiz-adv-x="378" />
<glyph unicode="&#x2039;" horiz-adv-x="645" d="M111 498l297 442l127 -84l-240 -358l242 -359l-127 -84z" />
<glyph unicode="&#x203a;" horiz-adv-x="645" d="M109 856l127 84l299 -442l-297 -443l-127 84l239 359z" />
<glyph unicode="&#x205f;" horiz-adv-x="473" />
<glyph unicode="&#x20ac;" d="M47 471l39 133h94q-2 8 -2 27v125q0 32 6 96h-135l43 137h117q54 232 202 359t361 127q176 0 303 -74l-43 -152q-104 68 -266 68q-138 0 -234.5 -83t-140.5 -245h565l-34 -137h-555q-9 -57 -9 -150q0 -90 2 -98h496l-35 -133h-448q27 -175 109 -259.5t233 -84.5 q157 0 256 121l100 -101q-62 -81 -160 -126.5t-204 -45.5q-435 0 -512 496h-148z" />
<glyph unicode="&#x2122;" horiz-adv-x="2048" d="M70 1315v135h667v-135h-254v-709h-159v709h-254zM899 606v844h244l227 -647h6l228 647h243v-844h-159v705h-5l-245 -705h-129l-246 705h-4v-705h-160z" />
<glyph unicode="&#x25fc;" horiz-adv-x="972" d="M0 0v973h973v-973h-973z" />
<glyph unicode="&#xfb01;" d="M2 811v160h209v225q0 194 79.5 285.5t252.5 91.5q77 0 137 -14l-21 -164q-42 18 -104 18q-85 0 -121.5 -47t-36.5 -162v-233h219v-160h-221v-811h-184v811h-209zM756 1319q0 56 40 95.5t95 39.5t95 -40t40 -95q0 -56 -40 -95.5t-95 -39.5q-57 0 -96 39t-39 96zM799 0v971 h184v-971h-184z" />
<glyph unicode="&#xfb02;" d="M2 811v160h209v225q0 194 79.5 285.5t252.5 91.5q77 0 137 -14l-21 -164q-42 18 -104 18q-85 0 -121.5 -47t-36.5 -162v-233h219v-160h-221v-811h-184v811h-209zM801 0v1548h184v-1548h-184z" />
</font>
</defs>
</svg>
